<svg width="973" height="483" viewBox="0 0 973 483" fill="none" xmlns="http://www.w3.org/2000/svg">
<rect width="973" height="483" fill="#F5F5F5"/>
<rect x="806" y="30" width="167" height="61" fill="#D9D9D9"/>
<path d="M807.58 34.2102V33.2727H814.125V34.2102H811.381V42H810.324V34.2102H807.58ZM815.62 42V35.4545H816.625V42H815.62ZM816.131 34.3636C815.935 34.3636 815.766 34.2969 815.624 34.1634C815.485 34.0298 815.415 33.8693 815.415 33.6818C815.415 33.4943 815.485 33.3338 815.624 33.2003C815.766 33.0668 815.935 33 816.131 33C816.327 33 816.495 33.0668 816.634 33.2003C816.776 33.3338 816.847 33.4943 816.847 33.6818C816.847 33.8693 816.776 34.0298 816.634 34.1634C816.495 34.2969 816.327 34.3636 816.131 34.3636ZM821.314 35.4545V36.3068H817.922V35.4545H821.314ZM818.911 33.8864H819.916V40.125C819.916 40.4091 819.957 40.6222 820.04 40.7642C820.125 40.9034 820.233 40.9972 820.364 41.0455C820.497 41.0909 820.638 41.1136 820.786 41.1136C820.896 41.1136 820.987 41.108 821.058 41.0966C821.129 41.0824 821.186 41.071 821.229 41.0625L821.433 41.9659C821.365 41.9915 821.27 42.017 821.148 42.0426C821.026 42.071 820.871 42.0852 820.683 42.0852C820.399 42.0852 820.121 42.0241 819.848 41.902C819.578 41.7798 819.354 41.5938 819.175 41.3438C818.999 41.0938 818.911 40.7784 818.911 40.3977V33.8864ZM823.973 33.2727V42H822.967V33.2727H823.973ZM828.559 42.1364C827.929 42.1364 827.385 41.9972 826.927 41.7188C826.473 41.4375 826.122 41.0455 825.875 40.5426C825.63 40.0369 825.508 39.4489 825.508 38.7784C825.508 38.108 825.63 37.517 825.875 37.0057C826.122 36.4915 826.466 36.0909 826.906 35.804C827.349 35.5142 827.866 35.3693 828.457 35.3693C828.798 35.3693 829.135 35.4261 829.467 35.5398C829.799 35.6534 830.102 35.8381 830.375 36.0938C830.647 36.3466 830.865 36.6818 831.027 37.0994C831.189 37.517 831.27 38.0312 831.27 38.642V39.0682H826.224V38.1989H830.247C830.247 37.8295 830.173 37.5 830.025 37.2102C829.88 36.9205 829.673 36.6918 829.403 36.5241C829.136 36.3565 828.821 36.2727 828.457 36.2727C828.056 36.2727 827.71 36.3722 827.417 36.571C827.127 36.767 826.904 37.0227 826.748 37.3381C826.592 37.6534 826.514 37.9915 826.514 38.3523V38.9318C826.514 39.4261 826.599 39.8452 826.77 40.1889C826.943 40.5298 827.183 40.7898 827.49 40.9688C827.797 41.1449 828.153 41.233 828.559 41.233C828.824 41.233 829.062 41.196 829.275 41.1222C829.491 41.0455 829.677 40.9318 829.833 40.7812C829.99 40.6278 830.11 40.4375 830.196 40.2102L831.167 40.483C831.065 40.8125 830.893 41.1023 830.652 41.3523C830.41 41.5994 830.112 41.7926 829.757 41.9318C829.402 42.0682 829.002 42.1364 828.559 42.1364Z" fill="black"/>
<rect x="806" y="118" width="167" height="61" fill="#D9D9D9"/>
<path d="M807.58 122.21V121.273H814.125V122.21H811.381V130H810.324V122.21H807.58ZM815.62 130V123.455H816.625V130H815.62ZM816.131 122.364C815.935 122.364 815.766 122.297 815.624 122.163C815.485 122.03 815.415 121.869 815.415 121.682C815.415 121.494 815.485 121.334 815.624 121.2C815.766 121.067 815.935 121 816.131 121C816.327 121 816.495 121.067 816.634 121.2C816.776 121.334 816.847 121.494 816.847 121.682C816.847 121.869 816.776 122.03 816.634 122.163C816.495 122.297 816.327 122.364 816.131 122.364ZM821.314 123.455V124.307H817.922V123.455H821.314ZM818.911 121.886H819.916V128.125C819.916 128.409 819.957 128.622 820.04 128.764C820.125 128.903 820.233 128.997 820.364 129.045C820.497 129.091 820.638 129.114 820.786 129.114C820.896 129.114 820.987 129.108 821.058 129.097C821.129 129.082 821.186 129.071 821.229 129.062L821.433 129.966C821.365 129.991 821.27 130.017 821.148 130.043C821.026 130.071 820.871 130.085 820.683 130.085C820.399 130.085 820.121 130.024 819.848 129.902C819.578 129.78 819.354 129.594 819.175 129.344C818.999 129.094 818.911 128.778 818.911 128.398V121.886ZM823.973 121.273V130H822.967V121.273H823.973ZM828.559 130.136C827.929 130.136 827.385 129.997 826.927 129.719C826.473 129.438 826.122 129.045 825.875 128.543C825.63 128.037 825.508 127.449 825.508 126.778C825.508 126.108 825.63 125.517 825.875 125.006C826.122 124.491 826.466 124.091 826.906 123.804C827.349 123.514 827.866 123.369 828.457 123.369C828.798 123.369 829.135 123.426 829.467 123.54C829.799 123.653 830.102 123.838 830.375 124.094C830.647 124.347 830.865 124.682 831.027 125.099C831.189 125.517 831.27 126.031 831.27 126.642V127.068H826.224V126.199H830.247C830.247 125.83 830.173 125.5 830.025 125.21C829.88 124.92 829.673 124.692 829.403 124.524C829.136 124.357 828.821 124.273 828.457 124.273C828.056 124.273 827.71 124.372 827.417 124.571C827.127 124.767 826.904 125.023 826.748 125.338C826.592 125.653 826.514 125.991 826.514 126.352V126.932C826.514 127.426 826.599 127.845 826.77 128.189C826.943 128.53 827.183 128.79 827.49 128.969C827.797 129.145 828.153 129.233 828.559 129.233C828.824 129.233 829.062 129.196 829.275 129.122C829.491 129.045 829.677 128.932 829.833 128.781C829.99 128.628 830.11 128.437 830.196 128.21L831.167 128.483C831.065 128.812 830.893 129.102 830.652 129.352C830.41 129.599 830.112 129.793 829.757 129.932C829.402 130.068 829.002 130.136 828.559 130.136Z" fill="black"/>
<rect x="806" y="206" width="167" height="61" fill="#D9D9D9"/>
<path d="M807.58 210.21V209.273H814.125V210.21H811.381V218H810.324V210.21H807.58ZM815.62 218V211.455H816.625V218H815.62ZM816.131 210.364C815.935 210.364 815.766 210.297 815.624 210.163C815.485 210.03 815.415 209.869 815.415 209.682C815.415 209.494 815.485 209.334 815.624 209.2C815.766 209.067 815.935 209 816.131 209C816.327 209 816.495 209.067 816.634 209.2C816.776 209.334 816.847 209.494 816.847 209.682C816.847 209.869 816.776 210.03 816.634 210.163C816.495 210.297 816.327 210.364 816.131 210.364ZM821.314 211.455V212.307H817.922V211.455H821.314ZM818.911 209.886H819.916V216.125C819.916 216.409 819.957 216.622 820.04 216.764C820.125 216.903 820.233 216.997 820.364 217.045C820.497 217.091 820.638 217.114 820.786 217.114C820.896 217.114 820.987 217.108 821.058 217.097C821.129 217.082 821.186 217.071 821.229 217.062L821.433 217.966C821.365 217.991 821.27 218.017 821.148 218.043C821.026 218.071 820.871 218.085 820.683 218.085C820.399 218.085 820.121 218.024 819.848 217.902C819.578 217.78 819.354 217.594 819.175 217.344C818.999 217.094 818.911 216.778 818.911 216.398V209.886ZM823.973 209.273V218H822.967V209.273H823.973ZM828.559 218.136C827.929 218.136 827.385 217.997 826.927 217.719C826.473 217.438 826.122 217.045 825.875 216.543C825.63 216.037 825.508 215.449 825.508 214.778C825.508 214.108 825.63 213.517 825.875 213.006C826.122 212.491 826.466 212.091 826.906 211.804C827.349 211.514 827.866 211.369 828.457 211.369C828.798 211.369 829.135 211.426 829.467 211.54C829.799 211.653 830.102 211.838 830.375 212.094C830.647 212.347 830.865 212.682 831.027 213.099C831.189 213.517 831.27 214.031 831.27 214.642V215.068H826.224V214.199H830.247C830.247 213.83 830.173 213.5 830.025 213.21C829.88 212.92 829.673 212.692 829.403 212.524C829.136 212.357 828.821 212.273 828.457 212.273C828.056 212.273 827.71 212.372 827.417 212.571C827.127 212.767 826.904 213.023 826.748 213.338C826.592 213.653 826.514 213.991 826.514 214.352V214.932C826.514 215.426 826.599 215.845 826.77 216.189C826.943 216.53 827.183 216.79 827.49 216.969C827.797 217.145 828.153 217.233 828.559 217.233C828.824 217.233 829.062 217.196 829.275 217.122C829.491 217.045 829.677 216.932 829.833 216.781C829.99 216.628 830.11 216.437 830.196 216.21L831.167 216.483C831.065 216.812 830.893 217.102 830.652 217.352C830.41 217.599 830.112 217.793 829.757 217.932C829.402 218.068 829.002 218.136 828.559 218.136Z" fill="black"/>
<path d="M627 0V109V139.5M9.00003 482C-23 329.2 53 292.333 95 293C122.333 293 193.6 293 260 293C486.4 295.4 599 212 627 170V139.5M627 139.5L807 58M627 139.5L807 148M627 139.5L807 234" stroke="black"/>
<rect x="543" y="109" width="167" height="61" fill="#FFE458"/>
<path d="M544.58 113.21V112.273H551.125V113.21H548.381V121H547.324V113.21H544.58ZM552.62 121V114.455H553.625V121H552.62ZM553.131 113.364C552.935 113.364 552.766 113.297 552.624 113.163C552.485 113.03 552.415 112.869 552.415 112.682C552.415 112.494 552.485 112.334 552.624 112.2C552.766 112.067 552.935 112 553.131 112C553.327 112 553.495 112.067 553.634 112.2C553.776 112.334 553.847 112.494 553.847 112.682C553.847 112.869 553.776 113.03 553.634 113.163C553.495 113.297 553.327 113.364 553.131 113.364ZM558.314 114.455V115.307H554.922V114.455H558.314ZM555.911 112.886H556.916V119.125C556.916 119.409 556.957 119.622 557.04 119.764C557.125 119.903 557.233 119.997 557.364 120.045C557.497 120.091 557.638 120.114 557.786 120.114C557.896 120.114 557.987 120.108 558.058 120.097C558.129 120.082 558.186 120.071 558.229 120.062L558.433 120.966C558.365 120.991 558.27 121.017 558.148 121.043C558.026 121.071 557.871 121.085 557.683 121.085C557.399 121.085 557.121 121.024 556.848 120.902C556.578 120.78 556.354 120.594 556.175 120.344C555.999 120.094 555.911 119.778 555.911 119.398V112.886ZM560.973 112.273V121H559.967V112.273H560.973ZM565.559 121.136C564.929 121.136 564.385 120.997 563.927 120.719C563.473 120.438 563.122 120.045 562.875 119.543C562.63 119.037 562.508 118.449 562.508 117.778C562.508 117.108 562.63 116.517 562.875 116.006C563.122 115.491 563.466 115.091 563.906 114.804C564.349 114.514 564.866 114.369 565.457 114.369C565.798 114.369 566.135 114.426 566.467 114.54C566.799 114.653 567.102 114.838 567.375 115.094C567.647 115.347 567.865 115.682 568.027 116.099C568.189 116.517 568.27 117.031 568.27 117.642V118.068H563.224V117.199H567.247C567.247 116.83 567.173 116.5 567.025 116.21C566.88 115.92 566.673 115.692 566.403 115.524C566.136 115.357 565.821 115.273 565.457 115.273C565.056 115.273 564.71 115.372 564.417 115.571C564.127 115.767 563.904 116.023 563.748 116.338C563.592 116.653 563.514 116.991 563.514 117.352V117.932C563.514 118.426 563.599 118.845 563.77 119.189C563.943 119.53 564.183 119.79 564.49 119.969C564.797 120.145 565.153 120.233 565.559 120.233C565.824 120.233 566.062 120.196 566.275 120.122C566.491 120.045 566.677 119.932 566.833 119.781C566.99 119.628 567.11 119.437 567.196 119.21L568.167 119.483C568.065 119.812 567.893 120.102 567.652 120.352C567.41 120.599 567.112 120.793 566.757 120.932C566.402 121.068 566.002 121.136 565.559 121.136Z" fill="black"/>
<rect x="75" y="267" width="167" height="61" fill="#FFE458"/>
<path d="M76.5795 271.21V270.273H83.125V271.21H80.3807V279H79.3239V271.21H76.5795ZM84.6197 279V272.455H85.6254V279H84.6197ZM85.131 271.364C84.935 271.364 84.766 271.297 84.6239 271.163C84.4847 271.03 84.4151 270.869 84.4151 270.682C84.4151 270.494 84.4847 270.334 84.6239 270.2C84.766 270.067 84.935 270 85.131 270C85.3271 270 85.4947 270.067 85.6339 270.2C85.7759 270.334 85.8469 270.494 85.8469 270.682C85.8469 270.869 85.7759 271.03 85.6339 271.163C85.4947 271.297 85.3271 271.364 85.131 271.364ZM90.3139 272.455V273.307H86.9219V272.455H90.3139ZM87.9105 270.886H88.9162V277.125C88.9162 277.409 88.9574 277.622 89.0398 277.764C89.125 277.903 89.233 277.997 89.3636 278.045C89.4972 278.091 89.6378 278.114 89.7855 278.114C89.8963 278.114 89.9872 278.108 90.0582 278.097C90.1293 278.082 90.1861 278.071 90.2287 278.062L90.4332 278.966C90.3651 278.991 90.2699 279.017 90.1477 279.043C90.0256 279.071 89.8707 279.085 89.6832 279.085C89.3991 279.085 89.1207 279.024 88.848 278.902C88.5781 278.78 88.3537 278.594 88.1747 278.344C87.9986 278.094 87.9105 277.778 87.9105 277.398V270.886ZM92.973 270.273V279H91.9673V270.273H92.973ZM97.5593 279.136C96.9286 279.136 96.3846 278.997 95.9272 278.719C95.4727 278.438 95.1218 278.045 94.8746 277.543C94.6303 277.037 94.5082 276.449 94.5082 275.778C94.5082 275.108 94.6303 274.517 94.8746 274.006C95.1218 273.491 95.4656 273.091 95.9059 272.804C96.3491 272.514 96.8661 272.369 97.457 272.369C97.7979 272.369 98.1346 272.426 98.467 272.54C98.7994 272.653 99.1019 272.838 99.3746 273.094C99.6474 273.347 99.8647 273.682 100.027 274.099C100.189 274.517 100.27 275.031 100.27 275.642V276.068H95.2241V275.199H99.2468C99.2468 274.83 99.1729 274.5 99.0252 274.21C98.8803 273.92 98.6729 273.692 98.4031 273.524C98.136 273.357 97.8207 273.273 97.457 273.273C97.0565 273.273 96.7099 273.372 96.4173 273.571C96.1275 273.767 95.9045 274.023 95.7482 274.338C95.592 274.653 95.5138 274.991 95.5138 275.352V275.932C95.5138 276.426 95.5991 276.845 95.7695 277.189C95.9428 277.53 96.1829 277.79 96.4897 277.969C96.7965 278.145 97.1531 278.233 97.5593 278.233C97.8235 278.233 98.0621 278.196 98.2752 278.122C98.4911 278.045 98.6772 277.932 98.8335 277.781C98.9897 277.628 99.1104 277.437 99.1957 277.21L100.167 277.483C100.065 277.812 99.8931 278.102 99.6516 278.352C99.4102 278.599 99.1119 278.793 98.7567 278.932C98.4016 279.068 98.0025 279.136 97.5593 279.136Z" fill="black"/>
</svg>
